<svg width="536" height="192" viewBox="0 0 536 192" fill="none" xmlns="http://www.w3.org/2000/svg">
<g filter="url(#filter0_d_173_2)">
<rect x="135" y="35" width="168" height="60" fill="white"/>
<rect x="135.5" y="35.5" width="167" height="59" stroke="black"/>
</g>
<path d="M331.688 40.97C330.541 39.766 329.366 38.734 328.162 37.874C326.958 37.014 325.668 36.326 324.292 35.81C322.916 35.294 321.454 34.9213 319.906 34.692C318.358 34.4053 316.667 34.262 314.832 34.262C308.353 34.262 303.652 35.4947 300.728 37.96C297.804 40.4253 296.342 43.722 296.342 47.85C296.342 50.6593 296.973 52.8667 298.234 54.472C299.495 56.0773 301.502 57.3673 304.254 58.342C307.006 59.2593 310.561 60.1767 314.918 61.094C319.39 62.0113 323.26 63.072 326.528 64.276C329.796 65.48 332.319 67.114 334.096 69.178C335.873 71.242 336.762 74.08 336.762 77.692C336.762 80.272 336.246 82.5653 335.214 84.572C334.239 86.5213 332.806 88.1553 330.914 89.474C329.022 90.7927 326.729 91.796 324.034 92.484C321.397 93.1147 318.444 93.43 315.176 93.43C311.908 93.43 308.869 93.1147 306.06 92.484C303.251 91.796 300.613 90.764 298.148 89.388C295.683 88.012 293.361 86.2633 291.182 84.142L292.988 81.906C294.364 83.3967 295.855 84.7153 297.46 85.862C299.123 86.9513 300.871 87.8687 302.706 88.614C304.598 89.3593 306.576 89.9327 308.64 90.334C310.761 90.678 312.969 90.85 315.262 90.85C320.995 90.85 325.496 89.7893 328.764 87.668C332.089 85.4893 333.752 82.3073 333.752 78.122C333.752 75.198 333.035 72.876 331.602 71.156C330.169 69.3787 327.99 67.9453 325.066 66.856C322.142 65.7093 318.415 64.6773 313.886 63.76C309.471 62.8427 305.716 61.8393 302.62 60.75C299.581 59.6607 297.259 58.1413 295.654 56.192C294.106 54.2427 293.332 51.6053 293.332 48.28C293.332 44.668 294.221 41.6293 295.998 39.164C297.775 36.6413 300.269 34.7493 303.48 33.488C306.691 32.1693 310.446 31.51 314.746 31.51C317.383 31.51 319.791 31.768 321.97 32.284C324.149 32.8 326.155 33.574 327.99 34.606C329.882 35.638 331.659 37.014 333.322 38.734L331.688 40.97ZM364.772 90.936C364.658 90.9933 364.199 91.2513 363.396 91.71C362.594 92.1113 361.562 92.5127 360.3 92.914C359.096 93.258 357.692 93.43 356.086 93.43C354.596 93.43 353.22 93.1433 351.958 92.57C350.697 91.9967 349.694 91.1653 348.948 90.076C348.203 88.9293 347.83 87.582 347.83 86.034V50.86H341.466V48.28H347.83V32.886H350.754V48.28H361.332V50.86H350.754V85.604C350.869 87.2667 351.5 88.528 352.646 89.388C353.793 90.248 355.112 90.678 356.602 90.678C358.494 90.678 360.1 90.3627 361.418 89.732C362.794 89.044 363.54 88.6427 363.654 88.528L364.772 90.936ZM372.138 73.736V48.28H375.062V73.392C375.062 79.3547 376.036 83.798 377.986 86.722C379.992 89.646 383.002 91.108 387.016 91.108C389.71 91.108 392.29 90.506 394.756 89.302C397.278 88.098 399.486 86.4067 401.378 84.228C403.27 81.992 404.646 79.4693 405.506 76.66V48.28H408.43V88.528C408.43 89.1013 408.573 89.56 408.86 89.904C409.146 90.248 409.519 90.42 409.978 90.42V93C409.576 93 409.232 93 408.946 93C408.716 93 408.516 92.9713 408.344 92.914C407.598 92.742 406.968 92.3407 406.452 91.71C405.993 91.022 405.764 90.248 405.764 89.388L405.678 81.992C403.728 85.6613 401.034 88.5567 397.594 90.678C394.154 92.7993 390.427 93.86 386.414 93.86C381.712 93.86 378.158 92.1687 375.75 88.786C373.342 85.4033 372.138 80.3867 372.138 73.736ZM419.356 70.812C419.356 66.6267 420.245 62.7853 422.022 59.288C423.857 55.7907 426.322 52.9813 429.418 50.86C432.514 48.6813 436.04 47.592 439.996 47.592C444.01 47.592 447.564 48.6813 450.66 50.86C453.756 52.9813 456.164 55.504 457.884 58.428V30.22H460.808V88.528C460.808 89.1013 460.952 89.56 461.238 89.904C461.525 90.248 461.898 90.42 462.356 90.42V93C461.668 93.0573 461.152 93.0287 460.808 92.914C460.006 92.6847 459.346 92.226 458.83 91.538C458.314 90.85 458.056 90.1047 458.056 89.302V83.884C456.222 86.8653 453.728 89.2733 450.574 91.108C447.421 92.9427 444.182 93.86 440.856 93.86C437.76 93.86 434.894 93.2293 432.256 91.968C429.619 90.6493 427.326 88.9007 425.376 86.722C423.484 84.486 421.994 81.992 420.904 79.24C419.872 76.488 419.356 73.6787 419.356 70.812ZM457.884 78.208V62.814C457.082 60.4633 455.734 58.3707 453.842 56.536C451.95 54.644 449.829 53.1533 447.478 52.064C445.128 50.9173 442.777 50.344 440.426 50.344C437.674 50.344 435.18 50.9173 432.944 52.064C430.766 53.2107 428.874 54.7587 427.268 56.708C425.663 58.6573 424.43 60.8647 423.57 63.33C422.768 65.738 422.366 68.232 422.366 70.812C422.366 73.5067 422.825 76.0867 423.742 78.552C424.717 80.96 426.064 83.1387 427.784 85.088C429.562 86.98 431.568 88.4707 433.804 89.56C436.098 90.592 438.563 91.108 441.2 91.108C442.863 91.108 444.612 90.7927 446.446 90.162C448.338 89.474 450.116 88.528 451.778 87.324C453.498 86.12 454.903 84.744 455.992 83.196C457.082 81.5907 457.712 79.928 457.884 78.208ZM474.945 93V48.28H477.869V93H474.945ZM474.945 37.444V30.22H477.869V37.444H474.945ZM510.227 93.86C507.246 93.86 504.437 93.258 501.799 92.054C499.162 90.85 496.869 89.1873 494.919 87.066C492.97 84.8873 491.451 82.422 490.361 79.67C489.272 76.8607 488.727 73.908 488.727 70.812C488.727 67.6587 489.272 64.6773 490.361 61.868C491.508 59.0587 493.056 56.5933 495.005 54.472C496.955 52.2933 499.248 50.602 501.885 49.398C504.523 48.194 507.303 47.592 510.227 47.592C513.209 47.592 515.989 48.194 518.569 49.398C521.207 50.602 523.5 52.2933 525.449 54.472C527.456 56.5933 529.004 59.0587 530.093 61.868C531.24 64.6773 531.813 67.6587 531.813 70.812C531.813 73.908 531.269 76.8607 530.179 79.67C529.09 82.422 527.542 84.8873 525.535 87.066C523.586 89.1873 521.293 90.85 518.655 92.054C516.075 93.258 513.266 93.86 510.227 93.86ZM491.651 70.898C491.651 74.6247 492.483 78.036 494.145 81.132C495.808 84.1707 498.044 86.6073 500.853 88.442C503.663 90.2193 506.759 91.108 510.141 91.108C513.581 91.108 516.706 90.1907 519.515 88.356C522.325 86.5213 524.561 84.056 526.223 80.96C527.943 77.8067 528.803 74.3953 528.803 70.726C528.803 66.9993 527.943 63.588 526.223 60.492C524.561 57.396 522.325 54.9307 519.515 53.096C516.706 51.2613 513.61 50.344 510.227 50.344C506.902 50.344 503.806 51.29 500.939 53.182C498.13 55.0167 495.865 57.5107 494.145 60.664C492.483 63.76 491.651 67.1713 491.651 70.898Z" fill="black"/>
<path d="M151.896 81V44.79H163.728C167.536 44.79 170.698 45.606 173.214 47.238C175.73 48.836 177.617 51.012 178.875 53.766C180.167 56.486 180.813 59.512 180.813 62.844C180.813 66.516 180.116 69.712 178.722 72.432C177.328 75.152 175.339 77.26 172.755 78.756C170.205 80.252 167.196 81 163.728 81H151.896ZM179.028 62.844C179.028 59.682 178.433 56.86 177.243 54.378C176.053 51.896 174.319 49.958 172.041 48.564C169.797 47.136 167.026 46.422 163.728 46.422H153.681V79.368H163.728C167.06 79.368 169.865 78.654 172.143 77.226C174.421 75.764 176.138 73.775 177.294 71.259C178.45 68.743 179.028 65.938 179.028 62.844ZM198.455 81.51C196.687 81.51 195.004 81.153 193.406 80.439C191.842 79.691 190.465 78.688 189.275 77.43C188.119 76.138 187.201 74.659 186.521 72.993C185.875 71.293 185.552 69.491 185.552 67.587C185.552 65.105 186.113 62.844 187.235 60.804C188.357 58.764 189.87 57.132 191.774 55.908C193.712 54.684 195.871 54.072 198.251 54.072C200.699 54.072 202.875 54.701 204.779 55.959C206.717 57.183 208.264 58.832 209.42 60.906C210.576 62.946 211.154 65.224 211.154 67.74C211.154 67.876 211.154 68.012 211.154 68.148C211.154 68.284 211.137 68.42 211.103 68.556H187.337C187.507 70.698 188.102 72.636 189.122 74.37C190.176 76.104 191.519 77.481 193.151 78.501C194.817 79.521 196.619 80.031 198.557 80.031C200.495 80.031 202.314 79.538 204.014 78.552C205.714 77.532 206.921 76.24 207.635 74.676L209.216 75.084C208.706 76.308 207.907 77.413 206.819 78.399C205.731 79.385 204.456 80.15 202.994 80.694C201.566 81.238 200.053 81.51 198.455 81.51ZM187.286 67.077H209.42C209.284 64.833 208.706 62.861 207.686 61.161C206.7 59.427 205.391 58.067 203.759 57.081C202.127 56.095 200.308 55.602 198.302 55.602C196.33 55.602 194.528 56.095 192.896 57.081C191.298 58.067 189.989 59.427 188.969 61.161C187.983 62.895 187.422 64.867 187.286 67.077ZM228.04 81.51C226.238 81.51 224.555 81.153 222.991 80.439C221.427 79.691 220.05 78.688 218.86 77.43C217.67 76.138 216.735 74.659 216.055 72.993C215.409 71.327 215.086 69.542 215.086 67.638C215.086 65.088 215.647 62.793 216.769 60.753C217.891 58.713 219.421 57.098 221.359 55.908C223.331 54.684 225.541 54.072 227.989 54.072C230.301 54.072 232.358 54.616 234.16 55.704C235.962 56.758 237.305 58.22 238.189 60.09L236.506 60.702C235.69 59.138 234.5 57.914 232.936 57.03C231.406 56.146 229.706 55.704 227.836 55.704C225.796 55.704 223.943 56.231 222.277 57.285C220.611 58.339 219.285 59.767 218.299 61.569C217.313 63.371 216.82 65.394 216.82 67.638C216.82 69.848 217.313 71.888 218.299 73.758C219.319 75.628 220.662 77.124 222.328 78.246C224.028 79.334 225.881 79.878 227.887 79.878C229.213 79.878 230.505 79.64 231.763 79.164C233.021 78.654 234.109 78.008 235.027 77.226C235.945 76.41 236.54 75.543 236.812 74.625L238.546 75.135C238.138 76.359 237.39 77.464 236.302 78.45C235.248 79.402 234.007 80.15 232.579 80.694C231.151 81.238 229.638 81.51 228.04 81.51ZM255.179 81.51C253.411 81.51 251.745 81.153 250.181 80.439C248.617 79.725 247.257 78.739 246.101 77.481C244.945 76.189 244.044 74.727 243.398 73.095C242.752 71.429 242.429 69.678 242.429 67.842C242.429 65.972 242.752 64.204 243.398 62.538C244.078 60.872 244.996 59.41 246.152 58.152C247.308 56.86 248.668 55.857 250.232 55.143C251.796 54.429 253.445 54.072 255.179 54.072C256.947 54.072 258.596 54.429 260.126 55.143C261.69 55.857 263.05 56.86 264.206 58.152C265.396 59.41 266.314 60.872 266.96 62.538C267.64 64.204 267.98 65.972 267.98 67.842C267.98 69.678 267.657 71.429 267.011 73.095C266.365 74.727 265.447 76.189 264.257 77.481C263.101 78.739 261.741 79.725 260.177 80.439C258.647 81.153 256.981 81.51 255.179 81.51ZM244.163 67.893C244.163 70.103 244.656 72.126 245.642 73.962C246.628 75.764 247.954 77.209 249.62 78.297C251.286 79.351 253.122 79.878 255.128 79.878C257.168 79.878 259.021 79.334 260.687 78.246C262.353 77.158 263.679 75.696 264.665 73.86C265.685 71.99 266.195 69.967 266.195 67.791C266.195 65.581 265.685 63.558 264.665 61.722C263.679 59.886 262.353 58.424 260.687 57.336C259.021 56.248 257.185 55.704 255.179 55.704C253.207 55.704 251.371 56.265 249.671 57.387C248.005 58.475 246.662 59.954 245.642 61.824C244.656 63.66 244.163 65.683 244.163 67.893ZM286.231 56.112C283.817 56.214 281.692 56.996 279.856 58.458C278.054 59.886 276.796 61.841 276.082 64.323V81H274.348V54.48H276.031V61.212C276.949 59.342 278.173 57.812 279.703 56.622C281.267 55.432 282.899 54.735 284.599 54.531C284.939 54.497 285.245 54.48 285.517 54.48C285.823 54.48 286.061 54.48 286.231 54.48V56.112Z" fill="black"/>
<path d="M17.088 139V12.62H58.384C71.6747 12.62 82.7107 15.468 91.492 21.164C100.273 26.7413 106.859 34.336 111.25 43.948C115.759 53.4413 118.014 64.0027 118.014 75.632C118.014 88.448 115.581 99.6027 110.716 109.096C105.851 118.589 98.9087 125.947 89.89 131.168C80.99 136.389 70.488 139 58.384 139H17.088ZM111.784 75.632C111.784 64.596 109.707 54.7467 105.554 46.084C101.401 37.4213 95.3487 30.6573 87.398 25.792C79.566 20.808 69.8947 18.316 58.384 18.316H23.318V133.304H58.384C70.0133 133.304 79.8033 130.812 87.754 125.828C95.7047 120.725 101.697 113.783 105.732 105.002C109.767 96.2207 111.784 86.4307 111.784 75.632Z" fill="black"/>
<path d="M133.424 46.31C131.051 43.818 128.618 41.682 126.126 39.902C123.634 38.122 120.964 36.698 118.116 35.63C115.268 34.562 112.242 33.7907 109.038 33.316C105.834 32.7227 102.333 32.426 98.536 32.426C85.1267 32.426 75.396 34.9773 69.344 40.08C63.292 45.1827 60.266 52.006 60.266 60.55C60.266 66.3647 61.5713 70.9333 64.182 74.256C66.7927 77.5787 70.946 80.2487 76.642 82.266C82.338 84.1647 89.6953 86.0633 98.714 87.962C107.97 89.8607 115.98 92.056 122.744 94.548C129.508 97.04 134.729 100.422 138.408 104.694C142.087 108.966 143.926 114.84 143.926 122.316C143.926 127.656 142.858 132.403 140.722 136.556C138.705 140.591 135.738 143.973 131.822 146.702C127.906 149.431 123.159 151.508 117.582 152.932C112.123 154.237 106.012 154.89 99.248 154.89C92.484 154.89 86.1947 154.237 80.38 152.932C74.5653 151.508 69.1067 149.372 64.004 146.524C58.9013 143.676 54.0953 140.057 49.586 135.666L53.324 131.038C56.172 134.123 59.2573 136.853 62.58 139.226C66.0213 141.481 69.6407 143.379 73.438 144.922C77.354 146.465 81.448 147.651 85.72 148.482C90.1107 149.194 94.6793 149.55 99.426 149.55C111.293 149.55 120.608 147.355 127.372 142.964C134.255 138.455 137.696 131.869 137.696 123.206C137.696 117.154 136.213 112.348 133.246 108.788C130.279 105.109 125.77 102.143 119.718 99.888C113.666 97.5147 105.953 95.3787 96.578 93.48C87.4407 91.5813 79.668 89.5047 73.26 87.25C66.9707 84.9953 62.1647 81.8507 58.842 77.816C55.638 73.7813 54.036 68.3227 54.036 61.44C54.036 53.964 55.8753 47.6747 59.554 42.572C63.2327 37.3507 68.3947 33.4347 75.04 30.824C81.6853 28.0947 89.458 26.73 98.358 26.73C103.817 26.73 108.801 27.264 113.31 28.332C117.819 29.4 121.973 31.002 125.77 33.138C129.686 35.274 133.365 38.122 136.806 41.682L133.424 46.31Z" fill="black"/>
<defs>
<filter id="filter0_d_173_2" x="131" y="35" width="176" height="68" filterUnits="userSpaceOnUse" color-interpolation-filters="sRGB">
<feFlood flood-opacity="0" result="BackgroundImageFix"/>
<feColorMatrix in="SourceAlpha" type="matrix" values="0 0 0 0 0 0 0 0 0 0 0 0 0 0 0 0 0 0 127 0" result="hardAlpha"/>
<feOffset dy="4"/>
<feGaussianBlur stdDeviation="2"/>
<feComposite in2="hardAlpha" operator="out"/>
<feColorMatrix type="matrix" values="0 0 0 0 0 0 0 0 0 0 0 0 0 0 0 0 0 0 0.25 0"/>
<feBlend mode="normal" in2="BackgroundImageFix" result="effect1_dropShadow_173_2"/>
<feBlend mode="normal" in="SourceGraphic" in2="effect1_dropShadow_173_2" result="shape"/>
</filter>
</defs>
</svg>
